<?xml version="1.0" encoding="UTF-8"?>
<svg width="380px" height="380px" viewBox="0 0 380 380" version="1.1" xmlns="http://www.w3.org/2000/svg" xmlns:xlink="http://www.w3.org/1999/xlink">
    <title>big-icon-white-icon</title>
    <defs>
        <linearGradient x1="20.9070087%" y1="8.08562895%" x2="77.1545692%" y2="66.7340006%" id="linearGradient-1">
            <stop stop-color="#D500F9" offset="0%"></stop>
            <stop stop-color="#9C00F2" offset="63%"></stop>
            <stop stop-color="#6200EA" offset="100%"></stop>
        </linearGradient>
    </defs>
    <g id="Logo-variations" stroke="none" stroke-width="1" fill="none" fill-rule="evenodd">
        <g id="big-icon-white-icon" transform="translate(0.000000, 0.000000)">
            <polygon id="Box" fill="url(#linearGradient-1)" points="0 380 380 380 380 0 0 0"></polygon>
            <g id="Icon" transform="translate(77.000000, 76.000000)" fill="#FFFFFF">
                <path d="M98,99 L132.504005,99 C151.485213,99 167,114.522797 167,133.504005 C167,152.485213 151.477203,168 132.504005,168 L101.003831,168 C99.344715,168 98,166.654284 98,164.996169 C98,151.724243 98,99 98,99 Z M133,40 L103.489455,40 C100.723718,40 98.4808768,42.2418397 98.4808768,45.0085785 C98.4808768,59.3381217 98.4808768,99.4808768 98.4808768,99.4808768 L44.0085785,99.4808768 C42.6803035,99.4808768 41.4061211,100.008781 40.4675135,100.947389 C39.5279042,101.886998 39,103.16118 39,104.489455 C39,125.001588 39,202.478287 39,222.991421 C39,224.319797 39.5279042,225.593679 40.4675135,226.532987 C41.4061211,227.472296 42.6803035,228 44.0085785,228 C63.4709129,228 133,228 133,228 C184.699549,228 227,185.699549 227,134 C227,82.3004508 184.699549,40 133,40 Z" id="Fill-79"></path>
                <path d="M1.42108547e-14,54.0319136 C1.42108547e-14,56.7752909 2.26110091,59 5.05161062,59 C16.3651978,59 43.6337919,59 54.9483894,59 C57.7378888,59 60,56.7752909 60,54.0319136 C60,42.906381 60,16.093619 60,4.96808636 C60,2.22470907 57.7378888,-3.19744231e-14 54.9483894,-3.19744231e-14 C43.6337919,-3.19744231e-14 16.3651978,-3.19744231e-14 5.05161062,-3.19744231e-14 C2.26110091,-3.19744231e-14 1.42108547e-14,2.22470907 1.42108547e-14,4.96808636 C1.42108547e-14,16.093619 1.42108547e-14,42.906381 1.42108547e-14,54.0319136 Z" id="Fill-80"></path>
            </g>
        </g>
    </g>
</svg>