<svg xmlns="http://www.w3.org/2000/svg" fill-rule="evenodd" stroke-linejoin="round" stroke-miterlimit="2" clip-rule="evenodd" viewBox="0 0 120 120"><defs/><path fill="url(#_Linear1)" d="M51.7 52.5h18.1c10 0 18.2 8.1 18.2 18.1 0 10-8.2 18.1-18.2 18.1H54.7a3 3 0 01-3-3V52.5zm18.1-31.3H56.7a5 5 0 00-5 5v26.3H25.5a5 5 0 00-5 5V115a5 5 0 005 5h44.3a49.5 49.5 0 0049.4-49.4 49.5 49.5 0 00-49.4-49.4z"/><path fill="url(#_Linear2)" d="M0 26.3a5 5 0 005 5h21.3a5 5 0 005-5V5a5 5 0 00-5-5H5a5 5 0 00-5 5v21.3z"/><defs><linearGradient id="_Linear1" x1="0" x2="1" y1="0" y2="0" gradientTransform="scale(156.682) rotate(45.2 0 0)" gradientUnits="userSpaceOnUse"><stop offset="0" stop-color="#d500f9"/><stop offset=".6" stop-color="#9c00f2"/><stop offset="1" stop-color="#6200ea"/></linearGradient><linearGradient id="_Linear2" x1="0" x2="1" y1="0" y2="0" gradientTransform="scale(156.684) rotate(45.2 0 0)" gradientUnits="userSpaceOnUse"><stop offset="0" stop-color="#d500f9"/><stop offset=".6" stop-color="#9c00f2"/><stop offset="1" stop-color="#6200ea"/></linearGradient></defs></svg>