<svg xmlns="http://www.w3.org/2000/svg" fill-rule="evenodd" stroke-linejoin="round" stroke-miterlimit="2" clip-rule="evenodd" viewBox="0 0 571 120"><defs/><g fill="#263547"><path d="M51.7 52.5h18.1c10 0 18.2 8.1 18.2 18.1 0 10-8.2 18.1-18.2 18.1H54.7a3 3 0 01-3-3V52.5zm18.1-31.3H56.7a5 5 0 00-5 5v26.3H25.5a5 5 0 00-5 5V115a5 5 0 005 5h44.3a49.5 49.5 0 0049.4-49.4 49.5 49.5 0 00-49.4-49.4zM0 26.3a5 5 0 005 5h21.3a5 5 0 005-5V5a5 5 0 00-5-5H5a5 5 0 00-5 5v21.3z"/><g fill-rule="nonzero"><path d="M208.6 95.2c0 1.6.4 2 2 2h7.8c1.5 0 2-.4 2-2V46c0-1.6-.5-2-2-2h-7.8c-1.6 0-2 .4-2 2v49zM258.7 96.8c.4.7.7 1.2 1.4 1.2h.4c.7 0 1-.5 1.4-1.2L287.3 46c.6-1.1.2-2-.9-2h-9.2c-1.7 0-2.5.5-3.2 2L260.4 74h-.2l-13.6-28c-.7-1.4-1.5-2-3.2-2h-9.2c-1.1 0-1.5 1-1 2l25.5 50.8zM300.2 95.2c0 1.6.5 2 2 2h7.8c1.6 0 2-.4 2-2V46c0-1.6-.4-2-2-2h-7.8c-1.5 0-2 .4-2 2v49zM342.5 73.2l15 23.1c1 1.3 1.3 1.7 2.2 1.7h.2c.9 0 1.3-.4 2.2-1.7l15-23.1h.2l2.6 22c.2 1.6.5 2 2 2h7.9c1.5 0 2.1-.5 1.9-2l-6.1-50.9c-.1-.7-.5-1-1.2-1h-.2c-.7 0-1.2.3-1.7 1l-22.6 34h-.1l-22.6-34c-.5-.7-1-1-1.7-1h-.3c-.7 0-1 .3-1.1 1l-6.2 50.9c-.2 1.5.5 2 2 2h7.9c1.5 0 1.7-.4 2-2l2.6-22zM405.1 70.6c0 15.5 11.4 27.6 26 27.6s26-12 26-27.6c0-15.5-11.4-27.6-26-27.6s-26 12.1-26 27.6zm12 0c0-8.7 4.9-16.5 14-16.5 9.2 0 14.1 7.8 14.1 16.5s-5 16.5-14 16.5c-9.2 0-14.2-7.8-14.2-16.5zM533 66.6c0-.8.7-1.5 1.6-1.5h32c1.5 0 2 .4 2 2V74c0 1.6-.5 2-2 2h-21.8v10.4h23.4c1.5 0 2 .5 2 2.1v6.8c0 1.6-.5 2-2 2H535c-1.5 0-2-.4-2-2V66.6zm0-20.5c0-1.6.5-2 2-2h32.8c1.5 0 2 .4 2 2v6.7c0 1.6-.5 2-2 2h-23l-10.2.1a1.5 1.5 0 01-1.5-1.5v-7.3zM472 46c0-1.5.3-2 1.9-2h18.4c14.6 0 26 11.1 26 26.6a25.6 25.6 0 01-26 26.6H474c-1.6 0-2-.4-2-2V66.6c0-.8.7-1.5 1.5-1.5h10.3v21.2h8.6c9.2 0 14-7 14-15.7s-4.8-15.7-14-15.7H472v-8.8zM147.4 46c0-1.5.5-2 2-2h18.5c14.6 0 25.9 11.1 25.9 26.6a25.6 25.6 0 01-26 26.6h-18.4c-1.5 0-2-.4-2-2V66.6c0-.8.7-1.5 1.5-1.5h10.3v21.2h8.7c9.1 0 14-7 14-15.7S177 55 167.9 55h-20.5v-8.8z"/></g></g></svg>