<svg xmlns="http://www.w3.org/2000/svg" fill-rule="evenodd" stroke-linejoin="round" stroke-miterlimit="2" clip-rule="evenodd" viewBox="0 0 424 56"><defs/><g fill="#e6e6e6" fill-rule="nonzero"><path d="M61.6 52.2c0 1.6.4 2 2 2h7.8c1.5 0 2-.4 2-2V3c0-1.6-.5-2-2-2h-7.9c-1.5 0-1.9.4-1.9 2v49zM111.7 53.8c.4.7.7 1.2 1.4 1.2h.4c.7 0 1-.5 1.4-1.2L140.3 3c.6-1.1.2-2-.9-2h-9.2c-1.7 0-2.5.5-3.2 2L113.4 31h-.2L99.6 3c-.7-1.4-1.5-2-3.2-2h-9.2c-1.1 0-1.5 1-1 2l25.5 50.8zM153.2 52.2c0 1.6.5 2 2 2h7.8c1.6 0 2-.4 2-2V3c0-1.6-.4-2-2-2h-7.8c-1.5 0-2 .4-2 2v49zM195.5 30.2l15 23.1c1 1.3 1.3 1.7 2.2 1.7h.2c.9 0 1.3-.4 2.2-1.7l15-23.1h.2l2.6 22c.2 1.6.5 2 2 2h7.9c1.5 0 2.1-.5 1.9-2l-6.1-50.9c-.1-.7-.5-1-1.2-1h-.2c-.7 0-1.2.3-1.7 1l-22.6 34h-.1l-22.6-34c-.5-.7-1-1-1.7-1h-.3c-.7 0-1 .3-1.1 1l-6.2 50.9c-.2 1.5.5 2 2 2h7.9c1.5 0 1.7-.4 2-2l2.6-22zM258.1 27.6c0 15.5 11.4 27.6 26 27.6s26-12 26-27.6c0-15.5-11.4-27.6-26-27.6s-26 12.1-26 27.6zm12 0c0-8.7 4.9-16.5 14-16.5 9.2 0 14.1 7.8 14.1 16.5s-5 16.5-14 16.5c-9.2 0-14.2-7.8-14.2-16.5zM386 23.6c0-.8.7-1.5 1.6-1.5h32c1.5 0 2 .4 2 2V31c0 1.6-.5 2-2 2h-21.8v10.4h23.4c1.5 0 2 .5 2 2v6.9c0 1.6-.5 2-2 2H388c-1.5 0-2-.4-2-2V23.6zm0-20.5c0-1.6.5-2 2-2h32.8c1.5 0 2 .4 2 2v6.7c0 1.6-.5 2-2 2h-23l-10.2.1a1.5 1.5 0 01-1.5-1.5V3.1zM325 3c0-1.5.3-2 1.9-2h18.4c14.6 0 26 11.1 26 26.6a25.6 25.6 0 01-26 26.6H327c-1.6 0-2-.4-2-2V23.6c0-.8.7-1.5 1.5-1.5h10.3v21.2h8.6c9.2 0 14-7 14-15.7s-4.8-15.7-14-15.7H325V3.1zM.4 3c0-1.5.5-2 2-2h18.5c14.6 0 25.9 11.1 25.9 26.6a25.6 25.6 0 01-26 26.6H2.5c-1.5 0-2-.4-2-2V23.6c0-.8.7-1.5 1.5-1.5h10.3v21.2H21c9.2 0 14-7 14-15.7S30 12 20.9 12H.4V3.1z"/></g></svg>